<svg width="93" height="92" viewBox="0 0 93 92" fill="none" xmlns="http://www.w3.org/2000/svg">
<path d="M31.488 26C32.8698 26 34.2503 26 35.6321 26C35.7978 26.0362 35.9636 26.093 36.1319 26.1047C40.6348 26.3916 44.9433 27.4577 48.9683 29.4879C58.4544 34.2733 64.2147 41.8875 66.1961 52.3033C66.4318 53.5413 66.5431 54.8026 66.7128 56.0523V60.1799C66.5444 61.4114 66.4382 62.6546 66.2 63.8719C63.9039 75.6241 57.1024 83.6957 45.9327 88.0003C38.9978 90.6728 31.8441 90.8822 24.6269 89.1078C24.3057 89.029 23.8965 89.0729 23.5896 89.2022C21.7636 89.9685 19.9596 90.7891 18.1388 91.5684C16.8774 92.1085 15.5306 92.1344 14.2874 91.6873C12.258 90.9558 11.1508 89.4025 11.0226 87.2392C10.9306 85.6729 10.8996 84.1041 10.8775 82.5352C10.8711 82.0442 10.7027 81.7069 10.3453 81.3709C5.24416 76.5842 2.10631 70.7405 0.912288 63.8681C0.699903 62.6456 0.57299 61.4088 0.407227 60.1799C0.407227 58.8036 0.407227 57.4286 0.407227 56.0523C0.443487 55.8675 0.487518 55.684 0.516009 55.4966C0.740049 53.9704 0.868257 52.4222 1.19849 50.9193C4.08511 37.7508 14.6668 28.6053 27.5265 26.5143C28.8409 26.3011 30.167 26.1693 31.488 26ZM16.0577 86.8489C18.0896 85.9598 19.8948 85.2025 21.6703 84.3819C22.9848 83.7745 24.2954 83.6699 25.694 84.0395C30.5801 85.3266 35.5064 85.4235 40.4224 84.285C48.0125 82.5262 53.9762 78.4387 57.9351 71.6839C61.0431 66.3803 62.0714 60.6205 61.2853 54.5545C60.2622 46.6599 56.495 40.3509 49.8282 35.9468C42.3041 30.9766 34.034 29.9828 25.4117 32.2702C17.7529 34.303 11.99 38.879 8.39886 45.9776C5.89298 50.9296 5.13538 56.2074 5.82822 61.697C6.60136 67.8186 9.13444 73.1054 13.6489 77.3402C15.3014 78.891 16.1587 80.5981 16.0667 82.8363C16.0136 84.1196 16.0577 85.4067 16.0577 86.8502V86.8489Z" fill="white"/>
<path d="M27.8995 50.3738C29.179 50.3854 30.1541 50.7835 31.0387 51.4568C33.2324 53.1264 35.4379 54.7831 37.6355 56.4476C38.726 57.2734 39.3942 57.2876 40.4859 56.4657C43.515 54.1861 46.5298 51.8845 49.5796 49.6333C49.9759 49.3413 50.5742 49.1035 51.0378 49.1616C52.1179 49.2973 52.5012 50.4578 51.8692 51.4658C50.3722 53.8514 48.8596 56.2279 47.3535 58.6083C45.9729 60.7884 44.5937 62.9685 43.2119 65.1486C41.4339 67.9542 38.5382 68.4685 35.9222 66.4435C33.7582 64.7687 31.5968 63.0926 29.4315 61.4203C28.4266 60.6437 27.691 60.6372 26.6874 61.4074C23.644 63.74 20.6137 66.0907 17.5509 68.3974C17.1689 68.6856 16.6107 68.9273 16.1562 68.8937C15.0696 68.8123 14.5969 67.6233 15.2095 66.6386C16.3673 64.7764 17.5522 62.9297 18.7268 61.0779C20.5114 58.262 22.2985 55.4499 24.0792 52.6315C25.0038 51.1686 26.339 50.441 27.9008 50.3725L27.8995 50.3738Z" fill="white"/>
<rect x="33.5596" width="59.2731" height="53" rx="26.5" fill="#FF3040"/>
<path d="M68.4298 11.7061H69.2091V15.9736H68.8937C67.4835 15.9736 66.228 16.1839 65.1271 16.6045C64.0262 17.0251 63.0923 17.625 62.3253 18.4043C61.5708 19.1712 60.9894 20.099 60.5812 21.1875C60.1854 22.276 59.9874 23.4945 59.9874 24.8428V29.333C59.9874 30.2979 60.0802 31.1514 60.2658 31.8936C60.4637 32.6234 60.742 33.2357 61.1007 33.7305C61.4718 34.2129 61.9048 34.5778 62.3996 34.8252C62.8944 35.0602 63.451 35.1777 64.0695 35.1777C64.6509 35.1777 65.1766 35.054 65.6466 34.8066C66.1291 34.5592 66.5373 34.2129 66.8712 33.7676C67.2176 33.3099 67.4774 32.778 67.6505 32.1719C67.8361 31.5534 67.9289 30.8792 67.9289 30.1494C67.9289 29.4196 67.8361 28.7454 67.6505 28.127C67.4774 27.5085 67.2176 26.9766 66.8712 26.5312C66.5249 26.0736 66.1043 25.721 65.6095 25.4736C65.1147 25.2262 64.5581 25.1025 63.9396 25.1025C63.0985 25.1025 62.3563 25.3005 61.713 25.6963C61.0822 26.0798 60.5874 26.5745 60.2287 27.1807C59.8699 27.7868 59.6782 28.4238 59.6535 29.0918L58.0392 28.0527C58.0763 27.1003 58.2742 26.1973 58.633 25.3438C59.0041 24.4902 59.5112 23.7357 60.1544 23.0801C60.81 22.4121 61.5955 21.8926 62.5109 21.5215C63.4263 21.138 64.4591 20.9463 65.6095 20.9463C66.8712 20.9463 67.9783 21.1875 68.9308 21.6699C69.8957 22.1523 70.6997 22.8141 71.3429 23.6553C71.9861 24.4964 72.4686 25.4674 72.7902 26.5684C73.1118 27.6693 73.2726 28.8444 73.2726 30.0938C73.2726 31.4049 73.0561 32.6234 72.6232 33.749C72.2026 34.8747 71.5903 35.8581 70.7863 36.6992C69.9946 37.5404 69.0421 38.196 67.9289 38.666C66.8156 39.1361 65.5662 39.3711 64.1808 39.3711C62.7459 39.3711 61.4409 39.1113 60.2658 38.5918C59.103 38.0599 58.1011 37.3177 57.2599 36.3652C56.4188 35.4128 55.7694 34.2809 55.3117 32.9697C54.8664 31.6585 54.6437 30.2236 54.6437 28.665V26.5869C54.6437 24.4098 54.9591 22.4183 55.59 20.6123C56.2332 18.7939 57.1548 17.223 58.3546 15.8994C59.5545 14.5635 61.0018 13.5306 62.6964 12.8008C64.3911 12.071 66.3022 11.7061 68.4298 11.7061Z" fill="white"/>
</svg>
