<svg width="71" height="63" viewBox="0 0 71 63" fill="none" xmlns="http://www.w3.org/2000/svg">
<path d="M50.2462 6.17621C54.2991 6.40026 58.0991 8.21707 60.8182 11.2307C63.5373 14.2444 64.9551 18.2106 64.7626 22.265C64.7626 31.737 56.5856 37.5553 48.7385 44.5329C40.9931 51.4488 36.8214 55.229 35.4709 56.1015C34.0001 55.1488 28.8633 50.4806 22.2033 44.5329C14.3223 37.5275 6.17922 31.6538 6.17922 22.265C5.98672 18.2106 7.4045 14.2444 10.1236 11.2307C12.8427 8.21707 16.6427 6.40026 20.6956 6.17621C22.9407 6.10816 25.165 6.62385 27.1512 7.67286C29.1373 8.72186 30.8173 10.2683 32.0268 12.161C34.6168 15.7839 35.0485 17.5969 35.4801 17.5969C35.9118 17.5969 36.3373 15.7839 38.9026 12.1517C40.1053 10.2503 41.7859 8.69773 43.7765 7.64915C45.767 6.60057 47.9979 6.09268 50.2462 6.17621ZM50.2462 0.00953864C47.4463 -0.0801039 44.6623 0.463045 42.1014 1.59854C39.5406 2.73403 37.2689 4.43261 35.4555 6.56779C33.6436 4.43883 31.3766 2.74417 28.8218 1.60902C26.2671 0.473878 23.4899 -0.0727458 20.6956 0.00953864C15.0064 0.232007 9.63681 2.69815 5.76094 6.8687C1.88506 11.0393 -0.181713 16.5749 0.0125545 22.265C0.0125545 33.3959 7.87505 40.2316 15.4755 46.8392C16.3481 47.5977 17.2299 48.3624 18.1056 49.1425L21.2721 51.973C24.7256 55.2591 28.3461 58.365 32.1193 61.2785C33.1176 61.9248 34.2816 62.2688 35.4709 62.2688C36.6602 62.2688 37.8242 61.9248 38.8225 61.2785C42.7158 58.2761 46.4477 55.0701 50.0026 51.6739L52.8455 49.1332C53.7489 48.3315 54.6646 47.533 55.5742 46.7467C62.7707 40.503 70.9292 33.4267 70.9292 22.265C71.1235 16.5749 69.0567 11.0393 65.1808 6.8687C61.305 2.69815 55.9354 0.232007 50.2462 0.00953864Z" fill="white"/>
</svg>
