<svg width="68" height="68" viewBox="0 0 68 68" fill="none" xmlns="http://www.w3.org/2000/svg">
<path d="M64.9091 68H46.3605C45.5408 68 44.7546 67.6744 44.1749 67.0947C43.5953 66.515 43.2696 65.7288 43.2696 64.9091V48.048C43.2921 46.8175 43.0692 45.5948 42.6138 44.4514C42.1584 43.308 41.4798 42.2668 40.6175 41.3886C39.7553 40.5104 38.7266 39.8129 37.5917 39.3367C36.4569 38.8605 35.2385 38.6153 34.0077 38.6153C32.777 38.6153 31.5586 38.8605 30.4237 39.3367C29.2888 39.8129 28.2602 40.5104 27.3979 41.3886C26.5356 42.2668 25.857 43.308 25.4016 44.4514C24.9463 45.5948 24.7233 46.8175 24.7458 48.048V64.9091C24.7458 65.7288 24.4202 66.515 23.8405 67.0947C23.2609 67.6744 22.4747 68 21.6549 68H3.09091C2.27115 68 1.48496 67.6744 0.905306 67.0947C0.325648 66.515 0 65.7288 0 64.9091V32.5872C0.000277945 32.1688 0.085325 31.7548 0.250008 31.3701C0.414691 30.9855 0.655595 30.6383 0.958182 30.3493L31.8673 0.85251C32.4425 0.305222 33.206 0 34 0C34.794 0 35.5575 0.305222 36.1327 0.85251L67.0418 30.3493C67.3444 30.6383 67.5853 30.9855 67.75 31.3701C67.9147 31.7548 67.9997 32.1688 68 32.5872V64.9091C68 65.7288 67.6744 66.515 67.0947 67.0947C66.515 67.6744 65.7289 68 64.9091 68Z" fill="white"/>
</svg>
