<svg width="67" height="67" viewBox="0 0 67 67" fill="none" xmlns="http://www.w3.org/2000/svg">
<path d="M3 33.497V44.0184C3 52.707 5.1289 56.2324 7.8983 59.0961C10.7653 61.8683 14.2972 64 22.9836 64H44.0164C52.7028 64 56.2347 61.8652 59.1017 59.0961C61.8711 56.2324 64 52.71 64 44.0184V22.9816C64 14.293 61.8711 10.7645 59.1017 7.90086C56.2347 5.13479 52.7028 3 44.0164 3H22.9836C14.2972 3 10.7653 5.13174 7.8983 7.90086C5.1289 10.7676 3 14.293 3 22.9816V33.497Z" stroke="white" stroke-width="6" stroke-linecap="round" stroke-linejoin="round"/>
<path d="M43.5327 42.2884C44.1926 41.8925 44.1926 40.9361 43.5327 40.5402L29.5438 32.1468C28.8644 31.7392 28 32.2286 28 33.0209V49.8076C28 50.6 28.8644 51.0894 29.5438 50.6817L43.5327 42.2884Z" fill="white"/>
<path d="M1 22H65" stroke="white" stroke-width="6"/>
<path d="M19 4L28 22" stroke="white" stroke-width="6"/>
<path d="M38 4L48 22" stroke="white" stroke-width="6"/>
</svg>
