<svg width="66" height="66" viewBox="0 0 66 66" fill="none" xmlns="http://www.w3.org/2000/svg">
<path d="M54 28.5C54 33.5434 52.5045 38.4736 49.7025 42.6671C46.9005 46.8605 42.918 50.1289 38.2585 52.059C33.5989 53.989 28.4717 54.494 23.5252 53.5101C18.5787 52.5261 14.035 50.0975 10.4688 46.5313C6.90255 42.965 4.47391 38.4213 3.48999 33.4748C2.50606 28.5283 3.01105 23.4011 4.94108 18.7416C6.87112 14.0821 10.1395 10.0995 14.333 7.29753C18.5264 4.49555 23.4566 3 28.5 3C35.2631 3 41.7491 5.6866 46.5313 10.4688C51.3134 15.251 54 21.737 54 28.5Z" stroke="white" stroke-width="6" stroke-linecap="round" stroke-linejoin="round"/>
<path d="M46.5332 46.5332L63.0002 63.0002" stroke="white" stroke-width="6" stroke-linecap="round" stroke-linejoin="round"/>
</svg>
